HIERARCHY
ROOT hip
{
	OFFSET 0.000000 0.000000 0.000000 
	CHANNELS 6 Xposition Yposition Zposition Xrotation Zrotation Yrotation
	JOINT abdomen
	{
		OFFSET 0.000000 3.402643 0.000000 
		CHANNELS 3 Xrotation Zrotation Yrotation
		JOINT chest
		{
			OFFSET 0.000000 8.438565 -0.680529 
			CHANNELS 3 Xrotation Zrotation Yrotation
			JOINT neck
			{
				OFFSET 0.000000 10.207942 -0.272212 
				CHANNELS 3 Xrotation Zrotation Yrotation
				JOINT head
				{
					OFFSET 0.000000 3.130431 0.000000 
					CHANNELS 3 Xrotation Zrotation Yrotation
					End Site
					{
						OFFSET 0.000000 3.130435 0.000000 
					}
				}
			}
			JOINT lCollar
			{
				OFFSET 3.470700 6.669187 -0.816635 
				CHANNELS 3 Yrotation Zrotation Xrotation
				JOINT lShldr
				{
					OFFSET 3.198488 0.000000 0.000000 
					CHANNELS 3 Zrotation Yrotation Xrotation
					JOINT lForeArm
					{
						OFFSET 10.139888 0.000000 0.000000 
						CHANNELS 3 Yrotation Zrotation Xrotation
						JOINT lHand
						{
							OFFSET 8.370511 0.000000 0.000000 
							CHANNELS 3 Zrotation Yrotation Xrotation
							End Site
							{
								OFFSET 4.083176 0.000000 0.000000 
							}
						}
					}
				}
			}
			JOINT rCollar
			{
				OFFSET -3.470700 6.669187 -0.816635 
				CHANNELS 3 Yrotation Zrotation Xrotation
				JOINT rShldr
				{
					OFFSET -3.198488 0.000000 0.000000 
					CHANNELS 3 Zrotation Yrotation Xrotation
					JOINT rForeArm
					{
						OFFSET -10.139888 0.000000 0.000000 
						CHANNELS 3 Yrotation Zrotation Xrotation
						JOINT rHand
						{
							OFFSET -8.370511 0.000000 0.000000 
							CHANNELS 3 Zrotation Yrotation Xrotation
							End Site
							{
								OFFSET -4.083176 0.000000 0.000000 
							}
						}
					}
				}
			}
		}
	}
	JOINT lThigh
	{
		OFFSET 5.308129 -1.633274 1.361059 
		CHANNELS 3 Xrotation Zrotation Yrotation
		JOINT lShin
		{
			OFFSET -2.041588 -20.007561 0.000000 
			CHANNELS 3 Xrotation Zrotation Yrotation
			JOINT lFoot
			{
				OFFSET 0.000000 -19.190928 -1.224953 
				CHANNELS 3 Xrotation Yrotation Zrotation
				End Site
				{
					OFFSET 0.000000 -2.449906 4.627600 
				}
			}
		}
	}
	JOINT rThigh
	{
		OFFSET -5.308129 -1.633274 1.361059 
		CHANNELS 3 Xrotation Zrotation Yrotation
		JOINT rShin
		{
			OFFSET 2.041588 -20.007561 0.000000 
			CHANNELS 3 Xrotation Zrotation Yrotation
			JOINT rFoot
			{
				OFFSET 0.000000 -19.190928 -1.224953 
				CHANNELS 3 Xrotation Yrotation Zrotation
				End Site
				{
					OFFSET 0.000000 -2.449906 4.627600 
				}
			}
		}
	}
}
MOTION
Frames: 15
Frame Time: 0.011111
30.195406 53.489857 -1.598401 -3.458550 -1.175034 -4.057644 27.037304 3.091997 -1.534899 -18.689056 0.352785 -0.685472 -15.867463 -5.522621 -4.022698 6.773865 5.466743 -9.460467 0.736540 -9.814158 1.078738 -67.476280 -27.975359 29.451925 -59.037544 9.184711 11.968846 8.524705 12.647240 -20.227919 -3.299667 11.850037 1.750699 62.567055 25.130413 32.529411 60.808437 -9.339848 12.775499 -8.534408 -12.637552 60.658062 4.007190 4.104128 -1.050353 21.040237 -5.741812 -3.669915 -24.319258 8.883973 1.236000 4.410499 -2.565874 5.435444 16.750938 5.854692 3.056892 -19.227116 -4.291211 1.357021 
30.199883 53.466839 -1.656583 -3.282974 -1.165386 -4.109977 27.263575 3.018657 -1.360351 -18.796423 0.400228 -0.637198 -15.526876 -5.595556 -3.712867 6.007453 5.780500 -8.875238 0.736540 -9.814158 1.078738 -67.404243 -28.277493 30.447405 -60.186344 9.281294 12.475513 8.524705 12.647240 -20.110733 -3.299667 11.850037 1.750699 62.432026 25.241587 33.330421 61.734741 -9.390778 13.186006 -8.534408 -12.637552 60.902203 3.883561 4.117662 -0.985611 20.787239 -5.741868 -3.637319 -24.024937 9.086281 1.226112 3.827552 -2.518208 5.586605 17.437273 5.835983 3.154986 -19.723644 -4.202528 1.301930 
30.214586 53.430077 -1.681519 -3.166073 -0.889941 -4.058648 27.405445 2.693280 -1.454822 -18.610882 0.402238 -0.626133 -15.764095 -5.494808 -3.529996 5.929756 5.787417 -8.506621 0.736540 -9.814158 1.078738 -67.213493 -28.656729 31.349329 -61.391407 9.366518 13.030203 8.524705 12.647240 -19.700575 -3.299667 11.850037 1.750699 62.537582 25.727198 34.059849 62.459927 -9.424342 13.522348 -8.534408 -12.637552 61.185402 4.048174 3.803991 -1.081322 20.222445 -5.771572 -3.552155 -23.623339 9.321490 1.214638 3.268237 -2.799446 5.482980 18.107729 5.825256 3.253218 -20.112064 -4.040077 1.306554 
30.232164 53.437107 -1.683756 -3.185896 -0.277021 -3.916460 27.707687 2.015654 -1.830720 -18.571741 0.480904 -0.644913 -16.086504 -5.282553 -3.364036 6.089627 5.654312 -8.124671 0.736540 -9.814158 1.078738 -66.937080 -28.791075 32.479778 -62.702347 9.425152 13.623029 8.524705 12.647240 -19.104870 -3.299667 11.850037 1.750699 62.555428 25.961193 34.962833 63.195316 -9.447336 13.864079 -8.534408 -12.637552 61.536964 4.359557 3.130818 -1.387693 19.741865 -5.784339 -3.481831 -23.493330 9.406653 1.210235 2.867892 -3.472070 5.248570 18.727360 5.806888 3.325519 -20.487450 -3.808411 1.332370 
30.242720 53.446697 -1.715085 -3.157413 0.233565 -3.739239 28.052513 1.462416 -2.160364 -18.932919 0.623305 -0.667496 -15.665421 -5.355107 -3.099559 5.575522 6.076661 -7.587308 0.736540 -9.814158 1.078738 -66.781662 -28.643234 33.503845 -63.937572 9.450146 14.189157 8.524705 12.647240 -18.557995 -3.299667 11.850037 1.750699 62.418720 25.730457 35.833824 64.068611 -9.459830 14.259239 -8.534408 -12.637552 61.849468 4.481585 2.615935 -1.681962 19.391459 -5.800672 -3.433142 -23.493473 9.402591 1.218912 2.469434 -4.000463 5.050364 19.192173 5.786282 3.393929 -20.741175 -3.820912 1.282977 
30.255825 53.452454 -1.774545 -2.953358 0.547064 -3.607162 28.333956 1.126377 -2.306982 -19.108627 0.699346 -0.679428 -15.495296 -5.334256 -2.854898 5.095203 6.202062 -7.115413 0.736540 -9.814158 1.078738 -66.630875 -28.954439 34.391251 -64.939415 9.453947 14.657275 8.524705 12.647240 -18.059950 -3.299667 11.850037 1.750699 62.371826 25.809902 36.476952 64.942497 -9.461591 14.668193 -8.534408 -12.637552 61.888535 4.210147 2.300151 -1.856657 19.411133 -5.804270 -3.425733 -23.452724 9.407179 1.195522 1.979847 -4.329368 4.897247 19.418890 5.776953 3.422473 -20.757980 -3.924858 1.264316 
30.262856 53.480904 -1.869811 -2.504830 0.281340 -3.619250 28.456776 1.404324 -1.970753 -19.177160 0.513259 -0.620838 -15.829824 -4.840590 -2.776925 5.100305 5.360186 -6.875572 0.736540 -9.814158 1.078738 -66.222534 -29.458712 35.584263 -65.971649 9.436446 15.144057 8.524705 12.647240 -17.415417 -3.299667 11.850037 1.750699 62.462654 26.149372 36.995590 65.730499 -9.450929 15.040056 -8.534408 -12.637552 61.732281 3.460349 2.631741 -1.678256 19.658936 -5.789617 -3.475613 -23.353563 9.336151 1.140667 1.347747 -4.003391 5.152733 19.540400 5.777504 3.452540 -20.692078 -4.187713 1.175266 
30.255182 53.483784 -1.986174 -1.958990 -0.280173 -3.615614 28.593988 1.989362 -1.463983 -19.333652 0.248400 -0.551980 -15.896667 -4.613392 -2.674469 4.749821 5.130889 -6.621912 0.736540 -9.814158 1.078738 -65.797752 -29.679590 36.689190 -67.246307 9.385362 15.749069 8.524705 12.647240 -16.927137 -3.299667 11.850037 1.750699 62.492119 26.431900 37.693871 66.517517 -9.427794 15.415960 -8.534408 -12.637552 61.956890 2.437320 3.333668 -1.431186 19.968637 -5.771551 -3.519529 -23.386801 9.070224 1.063912 0.633620 -3.304970 5.602970 19.726265 5.768342 3.467848 -20.671864 -4.579062 1.040605 
30.247196 53.471638 -2.072487 -1.618095 -0.274553 -3.489767 28.848866 1.983701 -1.433470 -19.187239 0.181499 -0.541260 -15.865532 -4.687246 -2.371062 3.784468 5.663461 -6.065105 0.736540 -9.814158 1.078738 -65.517548 -30.126352 37.473011 -68.506775 9.301058 16.347042 8.524705 12.647240 -16.790417 -3.299667 11.850037 1.750699 62.401508 26.971743 38.593670 67.292694 -9.392017 15.781786 -8.534408 -12.637552 62.279156 1.704836 3.409374 -1.462278 20.296162 -5.760767 -3.567220 -23.602650 8.800136 1.023993 0.087596 -3.244534 5.768326 19.868946 5.767555 3.480941 -20.783989 -4.797555 0.948175 
30.266052 53.447338 -2.141859 -1.355049 0.046689 -3.390719 29.149639 1.689523 -1.607338 -18.845579 0.057795 -0.559867 -16.513100 -4.021092 -2.179840 3.683308 4.949917 -5.544689 0.736540 -9.814158 1.078738 -65.058243 -30.757055 38.343197 -69.666199 9.191231 16.917637 8.524705 12.647240 -16.780653 -3.299667 11.850037 1.750699 62.456631 27.703001 39.369701 68.002213 -9.347110 16.124168 -8.534408 -12.637552 62.249859 1.207661 3.068484 -1.514778 20.650240 -5.765117 -3.599626 -23.665648 8.721436 1.025304 -0.370108 -3.596725 5.628603 19.899624 5.766963 3.483481 -20.806190 -4.841950 0.931744 
30.290667 53.452454 -2.209630 -1.121139 0.022451 -3.340920 29.542627 1.745881 -1.588082 -18.816463 -0.127466 -0.560178 -16.943432 -3.254151 -2.123898 3.709656 3.893919 -5.204458 0.736540 -9.814158 1.078738 -64.535057 -30.976963 39.315533 -70.841454 9.047662 17.495287 8.524705 12.647240 -16.780653 -3.299667 11.850037 1.750699 62.492558 28.161224 40.102100 68.561310 -9.301529 16.392004 -8.534408 -12.637552 62.132675 0.781108 3.085081 -1.346706 20.927029 -5.752274 -3.631900 -23.561605 8.696407 0.988034 -0.741520 -3.611245 5.464261 19.878983 5.766935 3.491446 -20.714516 -5.027890 0.890407 
30.286190 53.482502 -2.284755 -0.887265 -0.421459 -3.245878 30.038229 2.205787 -1.266214 -19.168076 -0.199129 -0.529796 -16.577839 -3.516277 -2.010268 3.060202 4.182459 -5.086070 0.736540 -9.814158 1.078738 -64.174149 -30.778370 40.328262 -72.074463 8.865163 18.119247 8.524705 12.647240 -17.054089 -3.299667 11.850037 1.750699 62.279419 28.313601 40.701534 68.910492 -9.272516 16.558533 -8.534408 -12.637552 61.995953 0.136694 3.613177 -1.293840 21.277733 -5.723497 -3.687962 -23.662233 8.495108 0.936909 -0.925407 -3.098435 5.561159 19.807985 5.766147 3.485175 -20.772947 -5.348192 0.761020 
30.271809 53.494011 -2.368511 -0.526555 -0.830572 -3.234822 30.457449 2.589307 -0.882915 -19.558743 -0.251012 -0.479059 -16.629091 -3.573344 -1.919684 3.032515 4.182531 -4.931200 0.736540 -9.814158 1.078738 -63.775211 -30.481737 41.233280 -73.379318 8.624867 18.784872 8.524705 12.647240 -17.630260 -3.299667 11.850037 1.750699 61.966652 28.458879 41.434910 69.196953 -9.248939 16.697367 -8.534408 -12.637552 62.152203 -0.730810 4.161759 -1.315730 21.733820 -5.712728 -3.776070 -23.838972 8.237784 0.865796 -1.228156 -2.622563 5.785742 19.665766 5.767348 3.452706 -20.799667 -5.612505 0.667620 
30.270208 53.481220 -2.452268 -0.039003 -0.949515 -3.300297 30.752954 2.711410 -0.878448 -19.793159 -0.302091 -0.496816 -16.753660 -3.055633 -1.702113 2.766402 3.695855 -4.342510 0.736540 -9.814158 1.078738 -63.090900 -30.241037 42.028633 -74.628609 8.346074 19.434072 8.524705 12.647240 -17.874403 -3.299667 11.850037 1.750699 61.612015 28.829945 42.747757 69.385773 -9.229206 16.798475 -8.534408 -12.637552 62.562363 -1.609165 4.350316 -1.284724 22.121695 -5.692777 -3.827209 -23.833935 8.180740 0.850717 -1.852628 -2.447757 5.957112 19.695658 5.770784 3.446152 -20.724953 -5.786473 0.644210 
30.286190 53.483143 -2.539540 0.477782 -0.715017 -3.258038 31.020967 2.533861 -1.152311 -20.017723 -0.275685 -0.545007 -15.730199 -3.464232 -1.262866 0.681420 4.658923 -3.627429 0.736540 -9.814158 1.078738 -62.336636 -30.107033 42.862560 -75.571281 8.104024 19.940786 8.524705 12.647240 -18.001354 -3.299667 11.850037 1.750699 61.235336 29.142904 43.811203 69.545273 -9.215556 16.874269 -8.534408 -12.637552 62.620949 -2.362020 4.138550 -1.395037 22.273113 -5.693584 -3.830807 -23.582235 8.313666 0.857797 -2.818715 -2.663223 5.898081 20.115088 5.757554 3.520803 -20.858606 -5.855999 0.584219 
